<?xml version="1.0" encoding="UTF-8"?>
<svg id="Layer_2" data-name="Layer 2" xmlns="http://www.w3.org/2000/svg" viewBox="0 0 1006.65 719.03">
  <defs>
    <style>
      .cls-1 {
        fill: #231f20;
      }

      .cls-2 {
        fill: #fc4b02;
      }
    </style>
  </defs>
  <g id="Layer_1-2" data-name="Layer 1">
    <g>
      <path class="cls-2" d="M883.41,267.27v195.63h-195.63v-195.63h195.63M898.44,252.24h-225.7v225.7h225.7v-225.7h0Z"/>
      <path class="cls-2" d="M922.3,83.73l63.3,84.16-84.16,63.3-63.3-84.16,84.16-63.3M925.28,62.67l-108.19,81.37,81.37,108.19,108.19-81.37h0s-81.37-108.2-81.37-108.2h0Z"/>
      <path class="cls-2" d="M705.83,21.05l90.03,120.11-120.11,90.03-90.03-120.11,120.11-90.03M708.85,0l-144.17,108.07,108.07,144.17,144.17-108.07L708.85,0h0Z"/>
      <g>
        <path class="cls-1" d="M0,251.95h116.96c21.97,0,35.49,2.37,44.96,7.77,15.21,8.45,22.31,25.02,22.31,51.72,0,21.63-3.72,32.79-13.18,40.56-6.76,5.41-12.51,7.77-21.97,9.47v1.01c30.09,3.72,39.89,16.56,39.89,53.41,0,45.97-17.24,61.52-68.62,61.52H0v-225.47ZM97.36,344.24c20.62-.34,22.31-.68,26.71-3.38,6.08-3.38,8.45-10.14,8.45-22.65,0-19.27-4.73-23.33-25.69-23.33h-54.76v49.35h45.3ZM95.67,434.49c35.16,0,41.58-4.06,41.58-25.69,0-15.55-2.7-22.31-10.48-25.69-4.39-1.69-5.41-1.69-25.35-2.03h-49.35v53.41h43.61Z"/>
        <path class="cls-1" d="M375.56,258.04c20.96,9.13,33.13,25.02,37.52,50.37,2.03,10.14,2.7,25.02,2.7,56.12,0,51.04-2.37,66.26-12.17,82.82-8.79,14.2-24,24-44.28,28.4-9.8,2.03-28.06,3.38-48.68,3.38-35.49,0-52.73-3.04-66.93-11.16-17.92-10.14-27.04-24.68-31.1-48-1.69-10.14-2.37-21.63-2.37-45.97,0-58.82,2.7-78.09,13.86-93.98,8.79-12.85,24.68-22.65,42.93-26.37,9.13-2.03,28.06-3.38,48.68-3.38,31.78,0,46.65,2.03,59.83,7.77ZM273.81,302.66c-9.13,8.11-10.48,16.23-10.48,68.96,0,36.17,1.69,45.97,8.79,54.42,5.75,6.76,15.21,8.45,44.28,8.45s36.51-3.72,41.92-17.92c3.72-10.14,4.39-18.25,4.39-52.73,0-44.96-1.01-51.04-9.13-60.51-5.75-6.76-14.54-8.45-41.58-8.45-23.66,0-31.44,1.69-38.2,7.77Z"/>
        <path class="cls-1" d="M571.97,361.14l69.3,116.29h-59.83l-29.41-53.75c-3.72-6.42-6.08-11.16-15.55-30.42l-5.07-10.14h-.68l-5.07,10.14c-9.46,19.27-12.51,24.68-15.55,30.76l-29.75,53.41h-61.52l70.65-116.29-65.92-109.19h60.85l27.38,49.35c3.38,6.08,5.41,10.48,13.86,27.72l4.39,9.13h1.01l4.39-9.13c8.11-16.23,10.14-20.62,13.86-27.38l27.72-49.69h60.51l-65.58,109.19Z"/>
      </g>
      <g>
        <path class="cls-1" d="M167.3,646.29v6.11c0,31.13-3.2,41.9-15.13,52.37-6.69,5.82-17.17,10.77-27.06,12.51-6.4,1.16-22.4,1.75-42.19,1.75-36.95,0-47.43-2.33-61.68-13.67-9.6-7.56-16.87-21.24-18.62-35.5-1.45-12.51-2.62-38.11-2.62-65.17,0-36.08,4.36-52.08,17.46-64.59,15.13-14.55,29.97-18.04,76.23-18.04,27.06,0,36.08,1.16,46.84,6.11,13.38,6.11,20.66,16.29,23.57,33.17,1.16,6.4,1.45,11.35,2.04,29.39h-44.52c-.29-13.97-.87-16.88-3.2-21.24-3.78-6.69-11.35-8.73-31.71-8.73-19.2,0-28.22,2.04-33.46,7.27-6.11,6.4-6.98,12.8-6.98,54.12,0,33.46.87,40.44,5.24,48.01,4.36,7.86,13.09,10.47,33.75,10.47,21.82,0,31.42-2.91,35.21-10.76,2.33-4.66,2.62-7.57,2.62-19.79v-3.78h44.23Z"/>
        <path class="cls-1" d="M354.08,523.51v125.69c0,5.24-.87,20.37-1.75,26.48-1.45,15.13-10.18,27.93-23.28,34.91-12.51,6.69-24.44,8.44-57.03,8.44-29.97,0-44.23-1.75-56.15-7.27-20.95-9.02-27.06-22.99-27.06-59.35v-128.89h44.81v128.89c0,24.44,5.53,28.22,39.28,28.22,31.42,0,36.37-4.07,36.37-30.26v-126.86h44.81Z"/>
        <path class="cls-1" d="M385.79,523.51h96.6c20.08,0,33.17,2.04,42.19,6.69,17.17,8.44,23.86,23.28,23.86,52.08,0,40.44-6.11,50.33-35.79,57.03v1.45c22.99,1.46,34.33,14.26,34.04,38.12v38.7h-45.39v-30.26c.58-19.49-7.57-28.22-25.31-27.64h-45.39v57.9h-44.81v-194.07ZM477.15,621.56c20.95,0,25.6-5.82,25.6-31.71,0-23.28-4.07-27.93-25.6-27.93h-46.55v59.64h46.55Z"/>
        <path class="cls-1" d="M743.95,523.51l-59.65,194.07h-68.67l-58.48-194.07h45.68l28.51,91.94c6.11,19.78,8.15,27.06,18.04,64.01h1.16c10.18-37.82,11.06-41.02,18.04-64.01l28.8-91.94h46.55Z"/>
        <path class="cls-1" d="M805.34,602.94h86.41v31.71h-86.41v45.97h93.1v36.95h-137.91v-194.07h136.75v36.95h-91.94v42.48Z"/>
      </g>
    </g>
  </g>
</svg>